<?xml version="1.0" encoding="utf-8"?>
<!-- Generator: Adobe Illustrator 23.1.0, SVG Export Plug-In . SVG Version: 6.00 Build 0)  -->
<svg version="1.1" id="Capa_1" xmlns="http://www.w3.org/2000/svg" xmlns:xlink="http://www.w3.org/1999/xlink" x="0px" y="0px"
	 viewBox="0 0 40 40" style="enable-background:new 0 0 40 40;" xml:space="preserve">
<style type="text/css">
	.st0{fill:#A54220;}
</style>
<g>
	<path class="st0" d="M40,20C40,9,31,0,20,0C9,0,0,9,0,20s9,20,20,20S40,31,40,20z M17.7,27.1v-9.2L15.2,20c-1,0.8-2.4,0.7-3.2-0.3
		c-0.4-0.4-0.5-1-0.5-1.5c0-0.6,0.3-1.3,0.8-1.7l6.3-5.3c0.9-0.7,2.1-0.7,3,0l6.3,5.3c1,0.8,1.1,2.3,0.3,3.2c-0.8,1-2.3,1.1-3.2,0.3
		l-2.5-2.1v9.2c0,1.3-1,2.3-2.3,2.3S17.7,28.3,17.7,27.1z"/>
</g>
</svg>
