<svg width="70" height="70" viewBox="0 0 70 70" fill="none" xmlns="http://www.w3.org/2000/svg">

<circle cx="35" cy="35" r="35" id="circle"/>
<g id="logo" transform="translate(20, 20)">
    <path d="M20.625 0H9.375C4.19813 0 0 4.19813 0 9.375V20.625C0 25.8019 4.19813 30 9.375 30H20.625C25.8019 30 30 25.8019 30 20.625V9.375C30 4.19813 25.8019 0 20.625 0ZM27.1875 20.625C27.1875 24.2437 24.2437 27.1875 20.625 27.1875H9.375C5.75625 27.1875 2.8125 24.2437 2.8125 20.625V9.375C2.8125 5.75625 5.75625 2.8125 9.375 2.8125H20.625C24.2437 2.8125 27.1875 5.75625 27.1875 9.375V20.625Z" fill="#F8F8F8"/>
    <path transform="translate(7,7)" d="M8 0.5C3.85812 0.5 0.5 3.85812 0.5 8C0.5 12.1419 3.85812 15.5 8 15.5C12.1419 15.5 15.5 12.1419 15.5 8C15.5 3.85812 12.1419 0.5 8 0.5ZM8 12.6875C5.41625 12.6875 3.3125 10.5837 3.3125 8C3.3125 5.41438 5.41625 3.3125 8 3.3125C10.5837 3.3125 12.6875 5.41438 12.6875 8C12.6875 10.5837 10.5837 12.6875 8 12.6875Z" fill="#F8F8F8"/>
    <path transform="translate(22,5)" d="M1.06285 2.93625C1.6148 2.93625 2.06223 2.48881 2.06223 1.93687C2.06223 1.38494 1.6148 0.9375 1.06285 0.9375C0.510913 0.9375 0.0634766 1.38494 0.0634766 1.93687C0.0634766 2.48881 0.510913 2.93625 1.06285 2.93625Z" fill="#F8F8F8"/>
</g>

</svg>
