<?xml version="1.0" encoding="UTF-8" standalone="no"?>
<svg
   xmlns="http://www.w3.org/2000/svg"
   width="68"
   height="68"
   viewBox="0 0 70 70"
   fill="none"
   version="1.1">
    <circle
       cx="35"
       cy="35"
       r="35"
       id="circle" />
  <g
     width="30"
     height="18"
     viewBox="0 0 30 18"
     fill="none"
     id="logo"
     transform="translate(20,28.0)">
    <path
       d="M 29.7326,15.7089 C 29.652,15.5739 29.1532,14.4901 26.753,12.2624 24.2403,9.92977 24.5779,10.3085 27.6043,6.27512 29.4476,3.81869 30.1845,2.31858 29.9539,1.67728 29.7345,1.06599 28.3788,1.22725 28.3788,1.22725 L 23.8709,1.2535 c 0,0 -0.3337,-0.045 -0.5831,0.10313 -0.2419,0.14626 -0.3976,0.48379 -0.3976,0.48379 0,0 -0.7144,1.90139 -1.667,3.51776 -2.0082,3.41088 -2.8127,3.59089 -3.1408,3.379 -0.7632,-0.49316 -0.5719,-1.9839 -0.5719,-3.04148 0,-3.30587 0.5006,-4.68409 -0.977,-5.040369 C 16.0422,0.537197 15.6822,0.458441 14.4277,0.445315 12.8189,0.428439 11.4556,0.450941 10.685,0.827844 10.1712,1.07911 9.77552,1.63978 10.0174,1.67166 c 0.2982,0.03937 0.9732,0.18188 1.3314,0.66942 0.4631,0.62817 0.4462,2.04203 0.4462,2.04203 0,0 0.2663,3.89091 -0.6206,4.3747 C 10.5649,9.08971 9.73051,8.41278 7.93975,5.31693 7.02281,3.73243 6.32901,1.97918 6.32901,1.97918 c 0,0 -0.13313,-0.32628 -0.37128,-0.50066 C 5.66896,1.26663 5.26393,1.19912 5.26393,1.19912 L 0.977366,1.22537 c 0,0 -0.643173,0.01876 -0.8794402,0.29815 C -0.11209,1.77291 0.0810496,2.2867 0.0810496,2.2867 c 0,0 3.3565004,7.8512 7.1555304,11.8096 3.48592,3.6284 7.44242,3.3903 7.44242,3.3903 h 1.7926 c 0,0 0.542,-0.06 0.8176,-0.3582 0.255,-0.2737 0.2456,-0.7875 0.2456,-0.7875 0,0 -0.0356,-2.4058 1.082,-2.7602 1.1007,-0.3488 2.5146,2.3251 4.0128,3.3546 1.1326,0.7782 1.9933,0.6075 1.9933,0.6075 L 28.63,17.4866 c 0,0 2.0964,-0.1294 1.1026,-1.7777 z"/>
  </g>
</svg>
