<svg width="70" height="70" viewBox="0 0 70 70" fill="none" xmlns="http://www.w3.org/2000/svg">
    <circle id="circle" cx="35" cy="35" r="35" id="circle"/>
    <g transform="translate(21.5,20)"  id="logo"><path
        d="M23.9484 5.00913C21.3172 2.37482 17.8178 0.92342 14.0899 0.921875C6.40803 0.921875 0.156124 7.17361 0.153034 14.8575C0.152004 17.3138 0.793674 19.7116 2.01333 21.8251L0.0361328 29.0469L7.42427 27.1088C9.46 28.2193 11.7518 28.8045 14.0842 28.8052H14.09C21.771 28.8052 28.0236 22.5529 28.0265 14.8687C28.0281 11.1447 26.5798 7.64327 23.9484 5.00913ZM14.0899 26.4515H14.0851C12.0066 26.4507 9.96811 25.8921 8.18936 24.8369L7.76656 24.5857L3.38233 25.7359L4.55254 21.4613L4.27703 21.0231C3.11745 19.1787 2.50514 17.0471 2.50617 14.8584C2.50857 8.47171 7.7051 3.2757 14.0945 3.2757C17.1885 3.27673 20.097 4.48316 22.284 6.6727C24.4709 8.86224 25.6746 11.7726 25.6736 14.8678C25.6708 21.255 20.4746 26.4515 14.0899 26.4515ZM20.4437 17.7759C20.0956 17.6015 18.3835 16.7593 18.0642 16.643C17.7452 16.5267 17.5128 16.4689 17.2809 16.8174C17.0486 17.1658 16.3814 17.9503 16.1781 18.1826C15.9749 18.415 15.772 18.4442 15.4237 18.2698C15.0754 18.0956 13.9534 17.7277 12.6232 16.5413C11.5881 15.618 10.8892 14.4776 10.686 14.1292C10.4831 13.7803 10.6843 13.6101 10.8388 13.4185C11.2157 12.9504 11.5932 12.4596 11.7093 12.2273C11.8255 11.9949 11.7673 11.7915 11.6801 11.6172C11.5932 11.443 10.8968 9.72896 10.6067 9.0315C10.3238 8.35275 10.037 8.44442 9.82306 8.43377C9.62016 8.42365 9.3879 8.42159 9.15564 8.42159C8.92356 8.42159 8.54624 8.50862 8.22695 8.85744C7.90784 9.20608 7.00833 10.0484 7.00833 11.7625C7.00833 13.4765 8.25614 15.1323 8.4302 15.3648C8.60427 15.5972 10.8858 19.1145 14.379 20.6228C15.2098 20.9819 15.8583 21.1959 16.3642 21.3564C17.1985 21.6215 17.9574 21.5841 18.5575 21.4945C19.2267 21.3944 20.6176 20.6519 20.9081 19.8386C21.1982 19.0251 21.1982 18.328 21.111 18.1826C21.0241 18.0374 20.7919 17.9503 20.4437 17.7759Z"
    /></g>
</svg>